<?xml version="1.0" encoding="utf-8"?>
<!-- Generator: Adobe Illustrator 23.0.3, SVG Export Plug-In . SVG Version: 6.00 Build 0)  -->
<svg version="1.2" baseProfile="tiny"
	 id="svg3153" inkscape:version="0.48.5 r10040" sodipodi:docname="Bandicam_2017-07-26_09-35-51-215.jpg" xmlns:cc="http://creativecommons.org/ns#" xmlns:dc="http://purl.org/dc/elements/1.1/" xmlns:inkscape="http://www.inkscape.org/namespaces/inkscape" xmlns:rdf="http://www.w3.org/1999/02/22-rdf-syntax-ns#" xmlns:sodipodi="http://sodipodi.sourceforge.net/DTD/sodipodi-0.dtd" xmlns:svg="http://www.w3.org/2000/svg"
	 xmlns="http://www.w3.org/2000/svg" fill="white" xmlns:xlink="http://www.w3.org/1999/xlink" x="0px" y="0px" viewBox="0 0 1176.8 123.9"
	 xml:space="preserve">
<g id="g3284" transform="matrix(3.3946588,0,0,3.3946588,-20.16715,-25.345386)">
	<g id="g3222">
		<path id="path3086" inkscape:connector-curvature="0" sodipodi:nodetypes="ccccccccccc" d="M322.6,35.6l0-7.5l7.2-2.7l-7.3-2.4
			l-0.2-7.4l-4.4,6l-7.2-2.2l4.2,6.3l-4.1,6.3l7.1-2.4L322.6,35.6z"/>
		<path id="path3088" inkscape:connector-curvature="0" d="M323.5,43.5h12.9l16.2-17.9L336.3,7.7h-12.8l15.2,17.9L323.5,43.5z"/>
	</g>
	<g id="g3274">
		<path id="path3226" inkscape:connector-curvature="0" sodipodi:nodetypes="ssccsssccss" d="M5.9,26.5c0-9.2,7.8-18.3,18.5-18.3
			c7.3,0,15.4,8.2,15.4,8.2L31,21.5c0,0-1.5-3.9-6.9-3.9c-5.5,0-8.8,4.5-8.8,8.7c0,4.6,3.7,8.7,8.5,8.7c3.7,0,7.7-4,7.7-4l7.5,5.5
			c0,0-5.6,6.9-15.1,6.9C14.5,43.3,5.9,37.6,5.9,26.5L5.9,26.5z"/>
		<path id="path3231" inkscape:connector-curvature="0" fill-rule="evenodd" d="M61,8.6c-9.9,0-18,7.9-18,17.7c0,9.8,8,17.7,18,17.7
			s18-7.9,18-17.7C79,16.6,70.9,8.6,61,8.6z M61,17.5c5,0,9,4,9,8.8s-4,8.8-9,8.8s-9-3.9-9-8.8C52,21.4,56,17.5,61,17.5z"/>
		<path id="rect3234" inkscape:connector-curvature="0" sodipodi:nodetypes="ccccccccccc" fill-rule="evenodd" d="M85.8,9.1v33.1
			h8.7V24.3l14.3,17.9h8.5V9.1h-8.7v19.3L94.4,9.1H85.8z"/>
		<path id="path3239" inkscape:connector-curvature="0" sodipodi:nodetypes="cccccccc" fill-rule="evenodd" d="M124.3,9.1L136,42.2
			h12.9l11.7-33.1h-9.5l-8.7,26.2l-8.7-26.2H124.3z"/>
		<path id="path3246" inkscape:connector-curvature="0" sodipodi:nodetypes="ccccccccccccc" fill-rule="evenodd" d="M166.8,9.1v33.1
			h26.6v-7.6h-17.9V29h16.1v-6.8h-16.1V17h17.9V9.1H166.8z"/>
		<path id="path3258" inkscape:connector-curvature="0" sodipodi:nodetypes="ccccccccccccc" fill-rule="evenodd" d="M273.9,9.1v33.1
			h26.6v-7.6h-17.9V29h16.1v-6.8h-16.1V17h17.9V9.1H273.9z"/>
		<path id="rect3260" inkscape:connector-curvature="0" fill-rule="evenodd" d="M203.1,9.8v32.6h7.7V29.5h4.4l6.8,12.8h9.9
			l-6.7-13.9c8.7-5.2,7-16.1-2.7-18.7H203.1z M210.7,17.6h8.9c3.1,0,2.9,4.8,0,4.8h-8.9V17.6z"/>
		<path id="path3272" inkscape:connector-curvature="0" sodipodi:nodetypes="csscssccsscsscc" d="M236.5,37.8
			c0.3,2,8.4,5.9,16.3,5.9c7.3,0,13.2-3.5,13.2-10.5c0-8.6-10-10.5-10-10.5s-8.3-0.1-8.5-4c-0.1-1.8,2.4-2.8,4.7-2.8
			c3.6,0,7.7,3.6,7.7,3.6l5.8-6.2c0,0-7.3-5.8-13.5-5.8c-5.9,0-14.3,3.9-14.3,11.9c0,6.9,9.7,10,9.7,10s10.3,1.1,10.3,4.3
			c0,2.2-3.7,2.8-5.9,2.8c-5.3,0-9.8-4.7-9.8-4.7L236.5,37.8z"/>
	</g>
</g>
</svg>
