<?xml version="1.0" encoding="utf-8"?>
<!-- Generator: Adobe Illustrator 23.0.3, SVG Export Plug-In . SVG Version: 6.00 Build 0)  -->
<svg version="1.1" id="Layer_1" xmlns="http://www.w3.org/2000/svg" xmlns:xlink="http://www.w3.org/1999/xlink" x="0px" y="0px"
	 viewBox="0 0 554.8 88.3" style="enable-background:new 0 0 554.8 88.3;" xml:space="preserve">
<style type="text/css">
	.st0{fill-rule:evenodd;clip-rule:evenodd;fill:white;}
</style>
<path class="st0" d="M548.3,3.1v16.5c-8.6-3.2-16.2-4.9-22.9-4.9c-4,0-7.1,0.7-9.5,2.1c-2.4,1.4-3.6,3.2-3.6,5.3
	c0,2.8,2.7,5.2,8,7.4l15.5,7.6c12.6,6,18.8,13.9,18.8,23.9c0,8.3-3.3,14.9-10,19.8c-6.6,5-15.5,7.4-26.6,7.4
	c-5.1,0-9.7-0.2-13.8-0.7c-4.1-0.4-8.8-1.3-14-2.6V67.7c9.5,3.2,18.2,4.9,26.1,4.9c9.3,0,14-2.7,14-8.2c0-2.7-1.9-4.9-5.8-6.6
	l-17.3-7.4c-6.4-2.9-11.1-6.4-14.2-10.5c-3-4.2-4.6-9-4.6-14.4c0-7.6,3.2-13.8,9.6-18.5c6.4-4.6,14.9-7,25.5-7
	c3.4,0,7.4,0.3,11.8,0.9C540,1.5,544.2,2.2,548.3,3.1L548.3,3.1z"/>
<path class="st0" d="M59.6,3.1v16.5c-8.6-3.2-16.2-4.9-22.8-4.9c-4,0-7.1,0.7-9.5,2.1c-2.4,1.4-3.6,3.2-3.6,5.3
	c0,2.8,2.7,5.2,8.1,7.4l15.5,7.6c12.5,6,18.8,13.9,18.8,23.9c0,8.3-3.3,14.9-9.9,19.8c-6.7,5-15.5,7.4-26.7,7.4
	c-5.1,0-9.7-0.2-13.8-0.7c-4.1-0.4-8.7-1.3-14-2.6V67.7c9.6,3.2,18.3,4.9,26.1,4.9c9.3,0,14-2.7,14-8.2c0-2.7-1.9-4.9-5.7-6.6
	l-17.3-7.4C12.4,47.5,7.7,44,4.6,39.9C1.5,35.7,0,30.9,0,25.5C0,17.8,3.2,11.7,9.6,7C16,2.3,24.5,0,35.1,0c3.5,0,7.4,0.3,11.8,0.9
	C51.3,1.5,55.5,2.2,59.6,3.1z"/>
<polygon class="st0" points="77.4,1.5 102.7,1.5 102.7,86.7 77.4,86.7 "/>
<polygon class="st0" points="184.3,1.5 184.3,17.3 146.7,17.3 146.7,36.2 179.3,36.2 179.3,50.4 146.7,50.4 146.7,70.2 185,70.2 
	185,86.7 122.3,86.7 122.3,1.5 "/>
<polygon class="st0" points="302.4,1.5 302.4,86.7 278.8,86.7 278.8,30.5 254.2,87.5 239.7,87.5 216.1,30.5 216.1,86.7 199,86.7 
	199,1.5 229.9,1.5 251,53.7 273,1.5 "/>
<polygon class="st0" points="383.9,1.5 383.9,17.3 346.5,17.3 346.5,36.2 379.1,36.2 379.1,50.4 346.5,50.4 346.5,70.2 384.6,70.2 
	384.6,86.7 321.9,86.7 321.9,1.5 "/>
<polygon class="st0" points="472.6,1.5 472.6,86.7 445.8,86.7 415.7,32.1 415.7,86.7 398.6,86.7 398.6,1.5 426.2,1.5 455.6,55.2 
	455.6,1.5 "/>
</svg>
